<mxfile host="app.diagrams.net" agent="Mozilla/5.0 (Macintosh; Intel Mac OS X 10_15_7) AppleWebKit/537.36 (KHTML, like Gecko) Chrome/129.0.0.0 Safari/537.36" version="24.7.7">
  <diagram name="System architecture" id="bEm-xaoiTsK3u-W85eKF">
    <mxGraphModel dx="2023" dy="753" grid="1" gridSize="10" guides="1" tooltips="1" connect="1" arrows="1" fold="1" page="1" pageScale="1" pageWidth="827" pageHeight="1169" math="0" shadow="0">
      <root>
        <mxCell id="0" />
        <mxCell id="1" parent="0" />
        <mxCell id="GZSkAN4DgeH0bBOix5HT-1" value="" style="rounded=1;whiteSpace=wrap;html=1;fillColor=#dae8fc;strokeColor=#6c8ebf;" vertex="1" parent="1">
          <mxGeometry x="320" y="50" width="120" height="60" as="geometry" />
        </mxCell>
        <mxCell id="GZSkAN4DgeH0bBOix5HT-2" value="&lt;font style=&quot;font-size: 14px;&quot;&gt;ThreadCraft&lt;/font&gt;" style="text;html=1;align=center;verticalAlign=middle;whiteSpace=wrap;rounded=0;" vertex="1" parent="1">
          <mxGeometry x="340" y="65" width="80" height="30" as="geometry" />
        </mxCell>
        <mxCell id="GZSkAN4DgeH0bBOix5HT-5" value="" style="endArrow=none;html=1;rounded=0;entryX=0.5;entryY=1;entryDx=0;entryDy=0;" edge="1" parent="1" target="GZSkAN4DgeH0bBOix5HT-1">
          <mxGeometry width="50" height="50" relative="1" as="geometry">
            <mxPoint x="380" y="180" as="sourcePoint" />
            <mxPoint x="440" y="140" as="targetPoint" />
          </mxGeometry>
        </mxCell>
        <mxCell id="GZSkAN4DgeH0bBOix5HT-6" value="" style="endArrow=none;html=1;rounded=0;" edge="1" parent="1">
          <mxGeometry width="50" height="50" relative="1" as="geometry">
            <mxPoint x="-2" y="180" as="sourcePoint" />
            <mxPoint x="758" y="180" as="targetPoint" />
          </mxGeometry>
        </mxCell>
        <mxCell id="GZSkAN4DgeH0bBOix5HT-7" value="" style="endArrow=classic;html=1;rounded=0;" edge="1" parent="1">
          <mxGeometry width="50" height="50" relative="1" as="geometry">
            <mxPoint y="180" as="sourcePoint" />
            <mxPoint y="240" as="targetPoint" />
          </mxGeometry>
        </mxCell>
        <mxCell id="GZSkAN4DgeH0bBOix5HT-8" value="" style="endArrow=classic;html=1;rounded=0;" edge="1" parent="1">
          <mxGeometry width="50" height="50" relative="1" as="geometry">
            <mxPoint x="757" y="179" as="sourcePoint" />
            <mxPoint x="757" y="239" as="targetPoint" />
          </mxGeometry>
        </mxCell>
        <mxCell id="GZSkAN4DgeH0bBOix5HT-9" value="" style="rounded=1;whiteSpace=wrap;html=1;fillColor=#f8cecc;strokeColor=#b85450;" vertex="1" parent="1">
          <mxGeometry x="-60" y="240" width="120" height="60" as="geometry" />
        </mxCell>
        <mxCell id="GZSkAN4DgeH0bBOix5HT-10" value="&lt;font style=&quot;font-size: 14px;&quot;&gt;Frontend&lt;/font&gt;" style="text;html=1;align=center;verticalAlign=middle;whiteSpace=wrap;rounded=0;" vertex="1" parent="1">
          <mxGeometry x="-40" y="255" width="80" height="30" as="geometry" />
        </mxCell>
        <mxCell id="GZSkAN4DgeH0bBOix5HT-11" value="" style="rounded=1;whiteSpace=wrap;html=1;fillColor=#e1d5e7;strokeColor=#9673a6;" vertex="1" parent="1">
          <mxGeometry x="700" y="240" width="120" height="60" as="geometry" />
        </mxCell>
        <mxCell id="GZSkAN4DgeH0bBOix5HT-12" value="&lt;font style=&quot;font-size: 14px;&quot;&gt;Backend&lt;/font&gt;" style="text;html=1;align=center;verticalAlign=middle;whiteSpace=wrap;rounded=0;" vertex="1" parent="1">
          <mxGeometry x="720" y="255" width="80" height="30" as="geometry" />
        </mxCell>
        <mxCell id="GZSkAN4DgeH0bBOix5HT-14" value="" style="endArrow=none;html=1;rounded=0;exitX=0.5;exitY=1;exitDx=0;exitDy=0;" edge="1" parent="1" source="GZSkAN4DgeH0bBOix5HT-9">
          <mxGeometry width="50" height="50" relative="1" as="geometry">
            <mxPoint x="270" y="350" as="sourcePoint" />
            <mxPoint y="380" as="targetPoint" />
          </mxGeometry>
        </mxCell>
        <mxCell id="GZSkAN4DgeH0bBOix5HT-15" value="" style="endArrow=none;html=1;rounded=0;" edge="1" parent="1">
          <mxGeometry width="50" height="50" relative="1" as="geometry">
            <mxPoint x="-120" y="380" as="sourcePoint" />
            <mxPoint x="120" y="380" as="targetPoint" />
          </mxGeometry>
        </mxCell>
        <mxCell id="GZSkAN4DgeH0bBOix5HT-16" value="" style="endArrow=classic;html=1;rounded=0;" edge="1" parent="1">
          <mxGeometry width="50" height="50" relative="1" as="geometry">
            <mxPoint x="-119" y="379" as="sourcePoint" />
            <mxPoint x="-119" y="439" as="targetPoint" />
          </mxGeometry>
        </mxCell>
        <mxCell id="GZSkAN4DgeH0bBOix5HT-17" value="" style="endArrow=classic;html=1;rounded=0;" edge="1" parent="1">
          <mxGeometry width="50" height="50" relative="1" as="geometry">
            <mxPoint y="380" as="sourcePoint" />
            <mxPoint y="440" as="targetPoint" />
          </mxGeometry>
        </mxCell>
        <mxCell id="GZSkAN4DgeH0bBOix5HT-18" value="" style="endArrow=classic;html=1;rounded=0;" edge="1" parent="1">
          <mxGeometry width="50" height="50" relative="1" as="geometry">
            <mxPoint x="120" y="380" as="sourcePoint" />
            <mxPoint x="120" y="440" as="targetPoint" />
          </mxGeometry>
        </mxCell>
        <mxCell id="GZSkAN4DgeH0bBOix5HT-19" value="" style="rounded=1;whiteSpace=wrap;html=1;" vertex="1" parent="1">
          <mxGeometry x="-190" y="440" width="120" height="60" as="geometry" />
        </mxCell>
        <mxCell id="GZSkAN4DgeH0bBOix5HT-20" value="&lt;font style=&quot;font-size: 14px;&quot;&gt;Pages&lt;/font&gt;" style="text;html=1;align=center;verticalAlign=middle;whiteSpace=wrap;rounded=0;" vertex="1" parent="1">
          <mxGeometry x="-170" y="455" width="80" height="30" as="geometry" />
        </mxCell>
        <mxCell id="GZSkAN4DgeH0bBOix5HT-21" value="" style="rounded=1;whiteSpace=wrap;html=1;" vertex="1" parent="1">
          <mxGeometry x="-60" y="440" width="120" height="60" as="geometry" />
        </mxCell>
        <mxCell id="GZSkAN4DgeH0bBOix5HT-22" value="&lt;font style=&quot;font-size: 14px;&quot;&gt;Comp&lt;/font&gt;" style="text;html=1;align=center;verticalAlign=middle;whiteSpace=wrap;rounded=0;" vertex="1" parent="1">
          <mxGeometry x="-40" y="455" width="80" height="30" as="geometry" />
        </mxCell>
        <mxCell id="GZSkAN4DgeH0bBOix5HT-23" value="" style="rounded=1;whiteSpace=wrap;html=1;" vertex="1" parent="1">
          <mxGeometry x="70" y="440" width="120" height="60" as="geometry" />
        </mxCell>
        <mxCell id="GZSkAN4DgeH0bBOix5HT-24" value="&lt;font style=&quot;font-size: 14px;&quot;&gt;Mocks&lt;/font&gt;" style="text;html=1;align=center;verticalAlign=middle;whiteSpace=wrap;rounded=0;" vertex="1" parent="1">
          <mxGeometry x="90" y="455" width="80" height="30" as="geometry" />
        </mxCell>
        <mxCell id="GZSkAN4DgeH0bBOix5HT-26" value="" style="endArrow=classic;html=1;rounded=0;" edge="1" parent="1">
          <mxGeometry width="50" height="50" relative="1" as="geometry">
            <mxPoint x="-126" y="508" as="sourcePoint" />
            <mxPoint x="-126" y="568" as="targetPoint" />
          </mxGeometry>
        </mxCell>
        <mxCell id="GZSkAN4DgeH0bBOix5HT-27" value="" style="endArrow=classic;html=1;rounded=0;" edge="1" parent="1">
          <mxGeometry width="50" height="50" relative="1" as="geometry">
            <mxPoint x="1" y="509" as="sourcePoint" />
            <mxPoint x="1" y="569" as="targetPoint" />
          </mxGeometry>
        </mxCell>
        <mxCell id="GZSkAN4DgeH0bBOix5HT-28" value="" style="endArrow=classic;html=1;rounded=0;" edge="1" parent="1">
          <mxGeometry width="50" height="50" relative="1" as="geometry">
            <mxPoint x="131" y="508" as="sourcePoint" />
            <mxPoint x="131" y="568" as="targetPoint" />
          </mxGeometry>
        </mxCell>
        <mxCell id="GZSkAN4DgeH0bBOix5HT-29" value="" style="rounded=1;whiteSpace=wrap;html=1;" vertex="1" parent="1">
          <mxGeometry x="-189" y="572" width="120" height="60" as="geometry" />
        </mxCell>
        <mxCell id="GZSkAN4DgeH0bBOix5HT-30" value="&lt;font style=&quot;font-size: 14px;&quot;&gt;layout.tsx&lt;/font&gt;" style="text;html=1;align=center;verticalAlign=middle;whiteSpace=wrap;rounded=0;" vertex="1" parent="1">
          <mxGeometry x="-169" y="587" width="80" height="30" as="geometry" />
        </mxCell>
        <mxCell id="GZSkAN4DgeH0bBOix5HT-31" value="" style="rounded=1;whiteSpace=wrap;html=1;" vertex="1" parent="1">
          <mxGeometry x="-59" y="572" width="120" height="60" as="geometry" />
        </mxCell>
        <mxCell id="GZSkAN4DgeH0bBOix5HT-32" value="&lt;font style=&quot;font-size: 14px;&quot;&gt;Navbar.tsx&lt;/font&gt;" style="text;html=1;align=center;verticalAlign=middle;whiteSpace=wrap;rounded=0;" vertex="1" parent="1">
          <mxGeometry x="-39" y="587" width="80" height="30" as="geometry" />
        </mxCell>
        <mxCell id="GZSkAN4DgeH0bBOix5HT-33" value="" style="rounded=1;whiteSpace=wrap;html=1;" vertex="1" parent="1">
          <mxGeometry x="71" y="572" width="120" height="60" as="geometry" />
        </mxCell>
        <mxCell id="GZSkAN4DgeH0bBOix5HT-34" value="&lt;font style=&quot;font-size: 14px;&quot;&gt;Twitter Mock&lt;/font&gt;" style="text;html=1;align=center;verticalAlign=middle;whiteSpace=wrap;rounded=0;" vertex="1" parent="1">
          <mxGeometry x="80.5" y="585" width="99" height="30" as="geometry" />
        </mxCell>
        <mxCell id="GZSkAN4DgeH0bBOix5HT-35" value="" style="rounded=1;whiteSpace=wrap;html=1;" vertex="1" parent="1">
          <mxGeometry x="71" y="674" width="119" height="60" as="geometry" />
        </mxCell>
        <mxCell id="GZSkAN4DgeH0bBOix5HT-36" value="&lt;font style=&quot;font-size: 14px;&quot;&gt;Twitter Mock&lt;/font&gt;" style="text;html=1;align=center;verticalAlign=middle;whiteSpace=wrap;rounded=0;" vertex="1" parent="1">
          <mxGeometry x="80.5" y="687" width="99" height="30" as="geometry" />
        </mxCell>
        <mxCell id="GZSkAN4DgeH0bBOix5HT-37" value="" style="endArrow=classic;html=1;rounded=0;" edge="1" parent="1">
          <mxGeometry width="50" height="50" relative="1" as="geometry">
            <mxPoint x="131" y="636" as="sourcePoint" />
            <mxPoint x="131.29" y="671" as="targetPoint" />
          </mxGeometry>
        </mxCell>
        <mxCell id="GZSkAN4DgeH0bBOix5HT-38" value="" style="rounded=1;whiteSpace=wrap;html=1;" vertex="1" parent="1">
          <mxGeometry x="75" y="778" width="119" height="60" as="geometry" />
        </mxCell>
        <mxCell id="GZSkAN4DgeH0bBOix5HT-39" value="&lt;font style=&quot;font-size: 14px;&quot;&gt;LinkedIn Mock&lt;/font&gt;" style="text;html=1;align=center;verticalAlign=middle;whiteSpace=wrap;rounded=0;" vertex="1" parent="1">
          <mxGeometry x="84.5" y="791" width="99" height="30" as="geometry" />
        </mxCell>
        <mxCell id="GZSkAN4DgeH0bBOix5HT-42" value="" style="endArrow=classic;html=1;rounded=0;" edge="1" parent="1">
          <mxGeometry width="50" height="50" relative="1" as="geometry">
            <mxPoint x="133" y="734" as="sourcePoint" />
            <mxPoint x="133.29" y="769" as="targetPoint" />
          </mxGeometry>
        </mxCell>
        <mxCell id="GZSkAN4DgeH0bBOix5HT-64" value="" style="edgeStyle=orthogonalEdgeStyle;rounded=0;orthogonalLoop=1;jettySize=auto;html=1;" edge="1" parent="1" source="GZSkAN4DgeH0bBOix5HT-49" target="GZSkAN4DgeH0bBOix5HT-52">
          <mxGeometry relative="1" as="geometry" />
        </mxCell>
        <mxCell id="GZSkAN4DgeH0bBOix5HT-49" value="" style="rounded=1;whiteSpace=wrap;html=1;" vertex="1" parent="1">
          <mxGeometry x="-187" y="671" width="120" height="60" as="geometry" />
        </mxCell>
        <mxCell id="GZSkAN4DgeH0bBOix5HT-50" value="&lt;font style=&quot;font-size: 14px;&quot;&gt;page.tsx&lt;/font&gt;" style="text;html=1;align=center;verticalAlign=middle;whiteSpace=wrap;rounded=0;" vertex="1" parent="1">
          <mxGeometry x="-177.5" y="684" width="99" height="30" as="geometry" />
        </mxCell>
        <mxCell id="GZSkAN4DgeH0bBOix5HT-51" value="" style="rounded=1;whiteSpace=wrap;html=1;" vertex="1" parent="1">
          <mxGeometry x="-187" y="779" width="119" height="60" as="geometry" />
        </mxCell>
        <mxCell id="GZSkAN4DgeH0bBOix5HT-52" value="&lt;font style=&quot;font-size: 14px;&quot;&gt;generate page&lt;/font&gt;" style="text;html=1;align=center;verticalAlign=middle;whiteSpace=wrap;rounded=0;" vertex="1" parent="1">
          <mxGeometry x="-177.5" y="792" width="99" height="30" as="geometry" />
        </mxCell>
        <mxCell id="GZSkAN4DgeH0bBOix5HT-53" value="" style="endArrow=classic;html=1;rounded=0;" edge="1" parent="1">
          <mxGeometry width="50" height="50" relative="1" as="geometry">
            <mxPoint x="-127" y="735" as="sourcePoint" />
            <mxPoint x="-126.71000000000001" y="770" as="targetPoint" />
          </mxGeometry>
        </mxCell>
        <mxCell id="GZSkAN4DgeH0bBOix5HT-54" value="" style="rounded=1;whiteSpace=wrap;html=1;" vertex="1" parent="1">
          <mxGeometry x="-183" y="883" width="119" height="60" as="geometry" />
        </mxCell>
        <mxCell id="GZSkAN4DgeH0bBOix5HT-55" value="&lt;font style=&quot;font-size: 14px;&quot;&gt;sign in / sign out&lt;/font&gt;" style="text;html=1;align=center;verticalAlign=middle;whiteSpace=wrap;rounded=0;" vertex="1" parent="1">
          <mxGeometry x="-173.5" y="896" width="99" height="30" as="geometry" />
        </mxCell>
        <mxCell id="GZSkAN4DgeH0bBOix5HT-56" value="" style="endArrow=classic;html=1;rounded=0;" edge="1" parent="1">
          <mxGeometry width="50" height="50" relative="1" as="geometry">
            <mxPoint x="-125" y="839" as="sourcePoint" />
            <mxPoint x="-124.71000000000001" y="874" as="targetPoint" />
          </mxGeometry>
        </mxCell>
        <mxCell id="GZSkAN4DgeH0bBOix5HT-57" value="" style="rounded=1;whiteSpace=wrap;html=1;" vertex="1" parent="1">
          <mxGeometry x="-184" y="984" width="119" height="60" as="geometry" />
        </mxCell>
        <mxCell id="GZSkAN4DgeH0bBOix5HT-58" value="&lt;font style=&quot;font-size: 14px;&quot;&gt;Pricing page&lt;/font&gt;" style="text;html=1;align=center;verticalAlign=middle;whiteSpace=wrap;rounded=0;" vertex="1" parent="1">
          <mxGeometry x="-174.5" y="997" width="99" height="30" as="geometry" />
        </mxCell>
        <mxCell id="GZSkAN4DgeH0bBOix5HT-59" value="" style="rounded=1;whiteSpace=wrap;html=1;" vertex="1" parent="1">
          <mxGeometry x="-180" y="1088" width="119" height="60" as="geometry" />
        </mxCell>
        <mxCell id="GZSkAN4DgeH0bBOix5HT-60" value="&lt;font style=&quot;font-size: 14px;&quot;&gt;docs page&lt;/font&gt;" style="text;html=1;align=center;verticalAlign=middle;whiteSpace=wrap;rounded=0;" vertex="1" parent="1">
          <mxGeometry x="-170.5" y="1101" width="99" height="30" as="geometry" />
        </mxCell>
        <mxCell id="GZSkAN4DgeH0bBOix5HT-61" value="" style="endArrow=classic;html=1;rounded=0;" edge="1" parent="1">
          <mxGeometry width="50" height="50" relative="1" as="geometry">
            <mxPoint x="-122" y="1044" as="sourcePoint" />
            <mxPoint x="-121.71000000000001" y="1079" as="targetPoint" />
          </mxGeometry>
        </mxCell>
        <mxCell id="GZSkAN4DgeH0bBOix5HT-62" value="" style="endArrow=classic;html=1;rounded=0;" edge="1" parent="1">
          <mxGeometry width="50" height="50" relative="1" as="geometry">
            <mxPoint x="-124.92" y="943" as="sourcePoint" />
            <mxPoint x="-124.63000000000001" y="978" as="targetPoint" />
          </mxGeometry>
        </mxCell>
        <mxCell id="GZSkAN4DgeH0bBOix5HT-65" value="" style="endArrow=classic;html=1;rounded=0;" edge="1" parent="1">
          <mxGeometry width="50" height="50" relative="1" as="geometry">
            <mxPoint x="-127.92" y="635" as="sourcePoint" />
            <mxPoint x="-127.63000000000001" y="670" as="targetPoint" />
          </mxGeometry>
        </mxCell>
        <mxCell id="GZSkAN4DgeH0bBOix5HT-66" value="" style="endArrow=none;html=1;rounded=0;" edge="1" parent="1">
          <mxGeometry width="50" height="50" relative="1" as="geometry">
            <mxPoint x="639.5" y="377" as="sourcePoint" />
            <mxPoint x="879.5" y="377" as="targetPoint" />
          </mxGeometry>
        </mxCell>
        <mxCell id="GZSkAN4DgeH0bBOix5HT-67" value="" style="endArrow=classic;html=1;rounded=0;" edge="1" parent="1">
          <mxGeometry width="50" height="50" relative="1" as="geometry">
            <mxPoint x="640.5" y="376" as="sourcePoint" />
            <mxPoint x="640.5" y="436" as="targetPoint" />
          </mxGeometry>
        </mxCell>
        <mxCell id="GZSkAN4DgeH0bBOix5HT-68" value="" style="endArrow=classic;html=1;rounded=0;" edge="1" parent="1">
          <mxGeometry width="50" height="50" relative="1" as="geometry">
            <mxPoint x="759.5" y="377" as="sourcePoint" />
            <mxPoint x="759.5" y="437" as="targetPoint" />
          </mxGeometry>
        </mxCell>
        <mxCell id="GZSkAN4DgeH0bBOix5HT-69" value="" style="endArrow=classic;html=1;rounded=0;" edge="1" parent="1">
          <mxGeometry width="50" height="50" relative="1" as="geometry">
            <mxPoint x="879.5" y="377" as="sourcePoint" />
            <mxPoint x="879.5" y="437" as="targetPoint" />
          </mxGeometry>
        </mxCell>
        <mxCell id="GZSkAN4DgeH0bBOix5HT-70" value="" style="rounded=1;whiteSpace=wrap;html=1;" vertex="1" parent="1">
          <mxGeometry x="569.5" y="437" width="120" height="60" as="geometry" />
        </mxCell>
        <mxCell id="GZSkAN4DgeH0bBOix5HT-71" value="&lt;font style=&quot;font-size: 14px;&quot;&gt;API&lt;/font&gt;" style="text;html=1;align=center;verticalAlign=middle;whiteSpace=wrap;rounded=0;" vertex="1" parent="1">
          <mxGeometry x="589.5" y="452" width="80" height="30" as="geometry" />
        </mxCell>
        <mxCell id="GZSkAN4DgeH0bBOix5HT-72" value="" style="rounded=1;whiteSpace=wrap;html=1;" vertex="1" parent="1">
          <mxGeometry x="699.5" y="437" width="120" height="60" as="geometry" />
        </mxCell>
        <mxCell id="GZSkAN4DgeH0bBOix5HT-73" value="&lt;font style=&quot;font-size: 14px;&quot;&gt;AI&lt;/font&gt;" style="text;html=1;align=center;verticalAlign=middle;whiteSpace=wrap;rounded=0;" vertex="1" parent="1">
          <mxGeometry x="719.5" y="452" width="80" height="30" as="geometry" />
        </mxCell>
        <mxCell id="GZSkAN4DgeH0bBOix5HT-74" value="" style="rounded=1;whiteSpace=wrap;html=1;" vertex="1" parent="1">
          <mxGeometry x="829.5" y="437" width="120" height="60" as="geometry" />
        </mxCell>
        <mxCell id="GZSkAN4DgeH0bBOix5HT-75" value="&lt;span style=&quot;font-size: 14px;&quot;&gt;Auth&lt;/span&gt;" style="text;html=1;align=center;verticalAlign=middle;whiteSpace=wrap;rounded=0;" vertex="1" parent="1">
          <mxGeometry x="849.5" y="452" width="80" height="30" as="geometry" />
        </mxCell>
        <mxCell id="GZSkAN4DgeH0bBOix5HT-76" value="" style="endArrow=classic;html=1;rounded=0;" edge="1" parent="1">
          <mxGeometry width="50" height="50" relative="1" as="geometry">
            <mxPoint x="633.5" y="505" as="sourcePoint" />
            <mxPoint x="633.5" y="565" as="targetPoint" />
          </mxGeometry>
        </mxCell>
        <mxCell id="GZSkAN4DgeH0bBOix5HT-77" value="" style="endArrow=classic;html=1;rounded=0;" edge="1" parent="1">
          <mxGeometry width="50" height="50" relative="1" as="geometry">
            <mxPoint x="760.5" y="506" as="sourcePoint" />
            <mxPoint x="760.5" y="566" as="targetPoint" />
          </mxGeometry>
        </mxCell>
        <mxCell id="GZSkAN4DgeH0bBOix5HT-78" value="" style="endArrow=classic;html=1;rounded=0;" edge="1" parent="1">
          <mxGeometry width="50" height="50" relative="1" as="geometry">
            <mxPoint x="890.5" y="505" as="sourcePoint" />
            <mxPoint x="890.5" y="565" as="targetPoint" />
          </mxGeometry>
        </mxCell>
        <mxCell id="GZSkAN4DgeH0bBOix5HT-79" value="" style="rounded=1;whiteSpace=wrap;html=1;" vertex="1" parent="1">
          <mxGeometry x="570.5" y="569" width="120" height="60" as="geometry" />
        </mxCell>
        <mxCell id="GZSkAN4DgeH0bBOix5HT-80" value="&lt;font style=&quot;font-size: 14px;&quot;&gt;Mailtrap&amp;nbsp;&lt;br&gt;Welcome eamil&lt;/font&gt;" style="text;html=1;align=center;verticalAlign=middle;whiteSpace=wrap;rounded=0;" vertex="1" parent="1">
          <mxGeometry x="572.5" y="582" width="120.5" height="30" as="geometry" />
        </mxCell>
        <mxCell id="GZSkAN4DgeH0bBOix5HT-81" value="" style="rounded=1;whiteSpace=wrap;html=1;" vertex="1" parent="1">
          <mxGeometry x="700.5" y="569" width="120" height="60" as="geometry" />
        </mxCell>
        <mxCell id="GZSkAN4DgeH0bBOix5HT-82" value="&lt;font style=&quot;font-size: 14px;&quot;&gt;Gemini AI&lt;br&gt;Content Gen&lt;/font&gt;" style="text;html=1;align=center;verticalAlign=middle;whiteSpace=wrap;rounded=0;" vertex="1" parent="1">
          <mxGeometry x="715.75" y="582" width="89.5" height="30" as="geometry" />
        </mxCell>
        <mxCell id="GZSkAN4DgeH0bBOix5HT-83" value="" style="rounded=1;whiteSpace=wrap;html=1;" vertex="1" parent="1">
          <mxGeometry x="830.5" y="569" width="120" height="60" as="geometry" />
        </mxCell>
        <mxCell id="GZSkAN4DgeH0bBOix5HT-84" value="&lt;font style=&quot;font-size: 14px;&quot;&gt;Clerk&amp;nbsp;&lt;br&gt;User Auth&lt;/font&gt;" style="text;html=1;align=center;verticalAlign=middle;whiteSpace=wrap;rounded=0;" vertex="1" parent="1">
          <mxGeometry x="840" y="582" width="99" height="30" as="geometry" />
        </mxCell>
        <mxCell id="GZSkAN4DgeH0bBOix5HT-94" value="" style="endArrow=none;html=1;rounded=0;exitX=0.5;exitY=1;exitDx=0;exitDy=0;" edge="1" parent="1">
          <mxGeometry width="50" height="50" relative="1" as="geometry">
            <mxPoint x="759.4100000000001" y="308" as="sourcePoint" />
            <mxPoint x="759" y="380" as="targetPoint" />
          </mxGeometry>
        </mxCell>
      </root>
    </mxGraphModel>
  </diagram>
</mxfile>
